<svg xmlns="http://www.w3.org/2000/svg" viewBox="0 0 64 64" width="64" height="64">
  <defs>
    <linearGradient id="grad1" x1="0%" y1="0%" x2="100%" y2="100%">
      <stop offset="0%" style="stop-color:#40c057;stop-opacity:1" />
      <stop offset="100%" style="stop-color:#2f9e44;stop-opacity:1" />
    </linearGradient>
  </defs>
  <circle cx="32" cy="32" r="31" fill="url(#grad1)"/>
  <g transform="translate(12, 12) scale(0.065)">
    <path d="M152 304c13.3 0 24-10.7 24-24v-48c0-13.3-10.7-24-24-24H56c-13.3 0-24 10.7-24 24v48c0 13.3 10.7 24 24 24h96zm0-160c13.3 0 24-10.7 24-24v-48c0-13.3-10.7-24-24-24H56c-13.3 0-24 10.7-24 24v48c0 13.3 10.7 24 24 24h96zm0 320c13.3 0 24-10.7 24-24v-48c0-13.3-10.7-24-24-24H56c-13.3 0-24 10.7-24 24v48c0 13.3 10.7 24 24 24h96zm398.2-215.9l-64 80c-7.8 9.8-20.4 15.9-33.4 15.9-15.7 0-30.5-8.8-38.4-23.3l-48-96c-8.8-17.7-.8-38.9 17-47.7s38.9-.8 47.7 17l28.1 56.2 44.1-55.2c10.4-13 29-15 42.1-4.6s15 29 4.6 42.1zM552 256h48c13.3 0 24 10.7 24 24v48c0 13.3-10.7 24-24 24h-48c-13.3 0-24-10.7-24-24v-48c0-13.3 10.7-24 24-24zm0-160h48c13.3 0 24 10.7 24 24v48c0 13.3-10.7 24-24 24h-48c-13.3 0-24-10.7-24-24v-48c0-13.3 10.7-24 24-24zm0 320h48c13.3 0 24 10.7 24 24v48c0 13.3-10.7 24-24 24h-48c-13.3 0-24-10.7-24-24v-48c0-13.3 10.7-24 24-24z" fill="white"/>
  </g>
</svg>
